<svg width="56" height="69" viewBox="0 0 56 69" fill="none" xmlns="http://www.w3.org/2000/svg">
<path d="M46.3673 38.7492C44.4968 29.3354 53.4321 23.8143 53.4321 23.8143C53.4321 23.8143 49.9508 18.7776 44.1 17.4819C38.2521 16.1833 35.3252 17.8058 32.4041 19.0226C29.4802 20.2425 28.0211 20.2425 28.0211 20.2425C23.8016 20.2425 20.717 15.7748 12.6777 17.8087C7.13915 19.2065 1.30867 25.6001 0.255239 33.2311C-0.798195 40.8648 1.47507 50.6055 5.85804 58.1547C10.241 65.7098 14.7058 68.549 17.8748 68.6308C21.0439 68.7095 24.2072 66.3605 28.0211 65.7885C31.8381 65.2224 34.1871 67.1718 37.931 68.2252C41.6603 69.2758 42.9677 68.3011 47.2631 64.6475C51.5702 60.994 55.4689 50.5151 55.4689 50.5151C55.4689 50.5151 48.2378 48.1688 46.3673 38.7492Z" fill="black"/>
<path d="M38.0863 11.3919C42.23 7.16946 40.8264 0.632812 40.8264 0.632812C40.8264 0.632812 35.0077 1.65419 31.1091 5.71032C27.2134 9.76943 27.8583 16.1805 27.8583 16.1805C27.8583 16.1805 33.9425 15.6115 38.0863 11.3919Z" fill="black"/>
</svg>
