<svg width="211" height="71" viewBox="0 0 211 71" fill="none" xmlns="http://www.w3.org/2000/svg">
<path d="M90.2983 37.4656C90.2983 47.5098 82.481 54.9112 72.8874 54.9112C63.2938 54.9112 55.4766 47.5098 55.4766 37.4656C55.4766 27.3506 63.2938 20.02 72.8874 20.02C82.481 20.02 90.2983 27.3506 90.2983 37.4656ZM82.6766 37.4656C82.6766 31.189 78.1459 26.8944 72.8874 26.8944C67.6289 26.8944 63.0982 31.189 63.0982 37.4656C63.0982 43.6793 67.6289 48.0368 72.8874 48.0368C78.1459 48.0368 82.6766 43.6714 82.6766 37.4656Z" fill="#EA4335"/>
<path d="M127.859 37.4656C127.859 47.5098 120.042 54.9112 110.448 54.9112C100.854 54.9112 93.0371 47.5098 93.0371 37.4656C93.0371 27.3585 100.854 20.02 110.448 20.02C120.042 20.02 127.859 27.3506 127.859 37.4656ZM120.237 37.4656C120.237 31.189 115.706 26.8944 110.448 26.8944C105.189 26.8944 100.659 31.189 100.659 37.4656C100.659 43.6793 105.189 48.0368 110.448 48.0368C115.706 48.0368 120.237 43.6714 120.237 37.4656Z" fill="#FBBC05"/>
<path d="M163.854 21.074V52.3942C163.854 65.2778 156.295 70.5398 147.359 70.5398C138.947 70.5398 133.884 64.8845 131.975 60.2597L138.611 57.4832C139.792 60.3226 142.687 63.6733 147.351 63.6733C153.071 63.6733 156.616 60.1259 156.616 53.4482V50.9391H156.35C154.644 53.0549 151.358 54.9033 147.21 54.9033C138.532 54.9033 130.582 47.3053 130.582 37.5285C130.582 27.681 138.532 20.02 147.21 20.02C151.35 20.02 154.636 21.8684 156.35 23.9213H156.616V21.0819H163.854V21.074ZM157.156 37.5285C157.156 31.3856 153.079 26.8944 147.891 26.8944C142.633 26.8944 138.227 31.3856 138.227 37.5285C138.227 43.6085 142.633 48.0368 147.891 48.0368C153.079 48.0368 157.156 43.6085 157.156 37.5285Z" fill="#4285F4"/>
<path d="M175.787 2.71582V53.8412H168.354V2.71582H175.787Z" fill="#34A853"/>
<path d="M204.756 43.2074L210.672 47.1716C208.763 50.011 204.162 54.9033 196.211 54.9033C186.352 54.9033 178.988 47.2424 178.988 37.4578C178.988 27.0832 186.414 20.0122 195.358 20.0122C204.365 20.0122 208.771 27.217 210.211 31.1104L211.001 33.0924L187.799 42.7512C189.576 46.2513 192.338 48.0368 196.211 48.0368C200.093 48.0368 202.784 46.1176 204.756 43.2074ZM186.547 36.9308L202.057 30.4575C201.204 28.2788 198.637 26.7608 195.617 26.7608C191.743 26.7608 186.352 30.198 186.547 36.9308Z" fill="#EA4335"/>
<path d="M27.337 32.9272V25.5258H52.1504C52.393 26.8158 52.5182 28.3417 52.5182 29.9934C52.5182 35.5464 51.008 42.413 46.1408 47.3053C41.4066 52.2605 35.3577 54.9033 27.3448 54.9033C12.4928 54.9033 0.00390625 42.7433 0.00390625 27.8147C0.00390625 12.8861 12.4928 0.726074 27.3448 0.726074C35.5612 0.726074 41.4144 3.96664 45.8121 8.19039L40.6162 13.413C37.4627 10.4399 33.1902 8.12746 27.337 8.12746C16.4914 8.12746 8.00899 16.9132 8.00899 27.8147C8.00899 38.7162 16.4914 47.5019 27.337 47.5019C34.3718 47.5019 38.3782 44.6625 40.9449 42.0826C43.0264 39.9904 44.3958 37.0015 44.9357 32.9194L27.337 32.9272Z" fill="#4285F4"/>
</svg>
