<svg width="288" height="63" viewBox="0 0 288 63" fill="none" xmlns="http://www.w3.org/2000/svg">
<g clip-path="url(#clip0_520_27855)">
<path d="M287.646 28.6819V23.5772H281.378V15.6413L281.167 15.707L275.28 17.5288L275.164 17.5644V23.5775H265.872V20.2277C265.872 18.6679 266.217 17.4743 266.896 16.6783C267.571 15.8918 268.537 15.492 269.768 15.492C270.653 15.492 271.57 15.7028 272.492 16.1187L272.723 16.2231V10.8472L272.614 10.8067C271.754 10.4939 270.584 10.3364 269.133 10.3364C267.305 10.3364 265.644 10.7388 264.195 11.5362C262.746 12.3348 261.605 13.4748 260.807 14.9242C260.011 16.3719 259.607 18.044 259.607 19.8944V23.5772H255.242V28.6819H259.607V50.1871H265.872V28.6819H275.164V42.3481C275.164 47.9764 277.789 50.8287 282.966 50.8287C283.817 50.8287 284.712 50.7279 285.626 50.5305C286.557 50.3278 287.191 50.1253 287.564 49.9091L287.646 49.8597V44.7078L287.391 44.8782C287.051 45.1074 286.628 45.2946 286.132 45.4339C285.633 45.5757 285.217 45.6468 284.894 45.6468C283.681 45.6468 282.784 45.3163 282.227 44.664C281.664 44.0058 281.379 42.8549 281.379 41.2449V28.6819H287.646ZM241.251 45.6476C238.977 45.6476 237.184 44.885 235.92 43.3828C234.649 41.873 234.005 39.7205 234.005 36.9856C234.005 34.164 234.649 31.9556 235.921 30.4191C237.185 28.8928 238.961 28.1181 241.2 28.1181C243.372 28.1181 245.102 28.858 246.34 30.3183C247.585 31.7863 248.217 33.977 248.217 36.8315C248.217 39.721 247.623 41.9407 246.451 43.4254C245.288 44.899 243.538 45.6476 241.251 45.6476ZM241.529 22.9362C237.191 22.9362 233.745 24.2219 231.288 26.7577C228.832 29.2937 227.588 32.8033 227.588 37.1897C227.588 41.3561 228.803 44.7072 231.2 47.1487C233.597 49.591 236.859 50.8281 240.895 50.8281C245.101 50.8281 248.478 49.5244 250.934 46.9535C253.389 44.3855 254.634 40.909 254.634 36.6251C254.634 32.3936 253.466 29.0174 251.163 26.5923C248.858 24.166 245.616 22.9362 241.529 22.9362ZM217.486 22.9362C214.535 22.9362 212.094 23.6996 210.229 25.2049C208.352 26.7192 207.401 28.7052 207.401 31.1085C207.401 32.3577 207.606 33.4674 208.01 34.4086C208.417 35.3528 209.047 36.1842 209.883 36.882C210.713 37.5741 211.994 38.2991 213.691 39.0368C215.118 39.6306 216.182 40.1329 216.858 40.5289C217.519 40.9169 217.988 41.3069 218.253 41.6868C218.51 42.0586 218.641 42.5674 218.641 43.1952C218.641 44.983 217.317 45.8529 214.593 45.8529C213.583 45.8529 212.43 45.6395 211.168 45.2188C209.914 44.8046 208.731 44.1979 207.66 43.4201L207.4 43.2314V49.3321L207.496 49.377C208.382 49.7909 209.5 50.1399 210.817 50.4145C212.132 50.6894 213.327 50.8292 214.365 50.8292C217.567 50.8292 220.146 50.0621 222.028 48.5478C223.921 47.0232 224.881 44.9903 224.881 42.5039C224.881 40.7102 224.365 39.1721 223.346 37.9316C222.335 36.7012 220.579 35.5716 218.131 34.5731C216.18 33.7813 214.931 33.124 214.415 32.6194C213.918 32.1319 213.666 31.4426 213.666 30.5696C213.666 29.7958 213.977 29.1758 214.617 28.6738C215.261 28.1692 216.158 27.9125 217.283 27.9125C218.327 27.9125 219.395 28.0793 220.457 28.4062C221.519 28.733 222.451 29.1708 223.229 29.7062L223.485 29.8831V24.0961L223.387 24.0534C222.669 23.742 221.722 23.4756 220.572 23.2594C219.427 23.0446 218.389 22.9362 217.486 22.9362ZM191.067 45.6476C188.794 45.6476 187 44.885 185.737 43.3828C184.466 41.873 183.823 39.721 183.823 36.9856C183.823 34.164 184.466 31.9556 185.739 30.4191C187.002 28.8928 188.777 28.1181 191.017 28.1181C193.189 28.1181 194.918 28.858 196.157 30.3183C197.402 31.7863 198.034 33.977 198.034 36.8315C198.034 39.721 197.44 41.9407 196.268 43.4254C195.104 44.899 193.356 45.6476 191.067 45.6476ZM191.347 22.9362C187.007 22.9362 183.561 24.2219 181.105 26.7577C178.65 29.2937 177.404 32.8033 177.404 37.1897C177.404 41.3577 178.62 44.7072 181.017 47.1487C183.414 49.591 186.676 50.8281 190.712 50.8281C194.917 50.8281 198.295 49.5244 200.751 46.9535C203.206 44.3855 204.451 40.909 204.451 36.6251C204.451 32.3936 203.283 29.0174 200.979 26.5923C198.674 24.166 195.433 22.9362 191.347 22.9362ZM167.894 28.1855V23.5772H161.705V50.1865H167.894V36.5748C167.894 34.2603 168.412 32.3588 169.436 30.9226C170.447 29.5035 171.794 28.7844 173.439 28.7844C173.996 28.7844 174.622 28.8773 175.3 29.0612C175.971 29.244 176.457 29.4426 176.743 29.6515L177.003 29.8421V23.5317L176.903 23.4882C176.327 23.2405 175.511 23.1156 174.479 23.1156C172.924 23.1156 171.532 23.621 170.34 24.6161C169.294 25.4908 168.538 26.69 167.959 28.1855H167.894ZM150.621 22.9362C147.782 22.9362 145.249 23.5519 143.095 24.7658C140.937 25.9824 139.267 27.7194 138.131 29.928C137.001 32.1314 136.427 34.7051 136.427 37.5753C136.427 40.0894 136.983 42.3966 138.083 44.4301C139.184 46.4669 140.742 48.0604 142.715 49.1656C144.684 50.2693 146.96 50.829 149.481 50.829C152.422 50.829 154.933 50.2342 156.947 49.0614L157.028 49.0142V43.2797L156.768 43.4718C155.856 44.1437 154.837 44.68 153.74 45.0664C152.646 45.4525 151.649 45.6476 150.774 45.6476C148.346 45.6476 146.396 44.8791 144.981 43.364C143.563 41.8469 142.844 39.7165 142.844 37.0359C142.844 34.3384 143.594 32.1533 145.072 30.541C146.545 28.9335 148.498 28.1181 150.876 28.1181C152.911 28.1181 154.893 28.8147 156.768 30.1906L157.028 30.3812V24.339L156.944 24.2912C156.238 23.8917 155.276 23.5618 154.081 23.3116C152.891 23.062 151.727 22.9362 150.621 22.9362ZM132.164 23.5775H125.975V50.1865H132.164V23.5775ZM129.133 12.2418C128.114 12.2418 127.226 12.5925 126.496 13.2875C125.763 13.9844 125.391 14.8619 125.391 15.8974C125.391 16.9167 125.759 17.7781 126.485 18.4565C127.206 19.1329 128.097 19.4758 129.133 19.4758C130.169 19.4758 131.064 19.1329 131.793 18.4576C132.528 17.7781 132.901 16.9169 132.901 15.8974C132.901 14.8981 132.538 14.0296 131.824 13.3156C131.11 12.6029 130.204 12.2418 129.133 12.2418ZM113.691 21.6142V50.1865H120.007V13.0564H111.265L100.154 40.6356L89.3711 13.0564H80.2734V50.1862H86.2089V21.6114H86.4127L97.7992 50.1865H102.278L113.487 21.6142H113.691Z" fill="#706D6E"/>
<path d="M29.7611 30.095H0.646484V0.649414H29.7611V30.095Z" fill="#F1511B"/>
<path d="M61.907 30.0945H32.793V0.648926H61.907V30.0945Z" fill="#80CC28"/>
<path d="M29.7603 62.6171H0.646484V33.1719H29.7603V62.6171Z" fill="#00ADEF"/>
<path d="M61.907 62.6171H32.793V33.1719H61.907V62.6171Z" fill="#FBBC09"/>
</g>
<defs>
<clipPath id="clip0_520_27855">
<rect width="287" height="62" fill="white" transform="translate(0.646484 0.632812)"/>
</clipPath>
</defs>
</svg>
