<svg width="281" height="72" viewBox="0 0 281 72" fill="none" xmlns="http://www.w3.org/2000/svg">
<g clip-path="url(#clip0_520_27862)">
<path d="M90.5059 55.7586L93.9918 47.7082C97.7589 50.5035 102.763 51.957 107.711 51.957C111.365 51.957 113.671 50.5594 113.671 48.435C113.614 42.509 91.799 47.1492 91.6304 32.2783C91.5741 24.7311 98.3211 18.9169 107.879 18.9169C113.558 18.9169 119.237 20.3145 123.285 23.5011L120.024 31.7192C116.313 29.3712 111.703 27.6941 107.317 27.6941C104.337 27.6941 102.369 29.0917 102.369 30.8807C102.426 36.6948 124.409 33.5082 124.634 47.7082C124.634 55.4232 118.056 60.846 108.61 60.846C101.695 60.846 95.3412 59.2248 90.5059 55.7586ZM224.265 44.8011C222.522 47.82 219.261 49.8885 215.494 49.8885C209.928 49.8885 205.43 45.4161 205.43 39.8815C205.43 34.3468 209.928 29.8744 215.494 29.8744C219.261 29.8744 222.522 31.9429 224.265 34.9618L233.879 29.6507C230.281 23.2775 223.365 18.9169 215.494 18.9169C203.855 18.9169 194.409 28.309 194.409 39.8815C194.409 51.4539 203.855 60.846 215.494 60.846C223.422 60.846 230.281 56.5413 233.879 50.1122L224.265 44.8011ZM129.47 1.53027H141.502V60.0633H129.47V1.53027ZM238.602 1.53027V60.0633H250.634V42.509L264.916 60.0633H280.321L262.16 39.2106L278.972 19.7555H264.241L250.634 35.9122V1.53027H238.602ZM177.261 44.9129C175.518 47.7641 171.92 49.8885 167.871 49.8885C162.305 49.8885 157.807 45.4161 157.807 39.8815C157.807 34.3468 162.305 29.8744 167.871 29.8744C171.92 29.8744 175.518 32.1106 177.261 35.0177V44.9129ZM177.261 19.7555V24.5074C175.293 21.209 170.401 18.9169 165.285 18.9169C154.715 18.9169 146.393 28.1972 146.393 39.8255C146.393 51.4539 154.715 60.846 165.285 60.846C170.401 60.846 175.293 58.5539 177.261 55.2555V60.0074H189.293V19.7555H177.261Z" fill="black"/>
<path d="M16.1207 44.8571C16.1207 48.9382 12.8034 52.2366 8.69903 52.2366C4.59461 52.2366 1.27734 48.9382 1.27734 44.8571C1.27734 40.776 4.59461 37.4775 8.69903 37.4775H16.1207V44.8571ZM19.8316 44.8571C19.8316 40.776 23.1488 37.4775 27.2532 37.4775C31.3577 37.4775 34.6749 40.776 34.6749 44.8571V63.3059C34.6749 67.387 31.3577 70.6854 27.2532 70.6854C23.1488 70.6854 19.8316 67.387 19.8316 63.3059V44.8571Z" fill="#E01E5A"/>
<path d="M27.2528 15.2273C23.1484 15.2273 19.8311 11.9289 19.8311 7.84779C19.8311 3.76669 23.1484 0.468262 27.2528 0.468262C31.3573 0.468262 34.6745 3.76669 34.6745 7.84779V15.2273H27.2528ZM27.2528 18.973C31.3573 18.973 34.6745 22.2714 34.6745 26.3525C34.6745 30.4336 31.3573 33.732 27.2528 33.732H8.64239C4.53797 33.732 1.2207 30.4336 1.2207 26.3525C1.2207 22.2714 4.53797 18.973 8.64239 18.973H27.2528Z" fill="#36C5F0"/>
<path d="M56.9956 26.3525C56.9956 22.2714 60.3129 18.973 64.4173 18.973C68.5217 18.973 71.839 22.2714 71.839 26.3525C71.839 30.4336 68.5217 33.732 64.4173 33.732H56.9956V26.3525ZM53.2848 26.3525C53.2848 30.4336 49.9675 33.732 45.8631 33.732C41.7587 33.732 38.4414 30.4336 38.4414 26.3525V7.84779C38.4414 3.76669 41.7587 0.468262 45.8631 0.468262C49.9675 0.468262 53.2848 3.76669 53.2848 7.84779V26.3525Z" fill="#2EB67D"/>
<path d="M45.8631 55.9264C49.9675 55.9264 53.2848 59.2248 53.2848 63.3059C53.2848 67.387 49.9675 70.6854 45.8631 70.6854C41.7587 70.6854 38.4414 67.387 38.4414 63.3059V55.9264H45.8631ZM45.8631 52.2366C41.7587 52.2366 38.4414 48.9382 38.4414 44.8571C38.4414 40.776 41.7587 37.4775 45.8631 37.4775H64.4735C68.5779 37.4775 71.8952 40.776 71.8952 44.8571C71.8952 48.9382 68.5779 52.2366 64.4735 52.2366H45.8631Z" fill="#ECB22E"/>
</g>
<defs>
<clipPath id="clip0_520_27862">
<rect width="280" height="71" fill="white" transform="translate(0.826172 0.132812)"/>
</clipPath>
</defs>
</svg>
